<?xml version="1.0" standalone="no"?>
<!DOCTYPE svg PUBLIC "-//W3C//DTD SVG 20010904//EN"
 "http://www.w3.org/TR/2001/REC-SVG-20010904/DTD/svg10.dtd">
<svg version="1.0" xmlns="http://www.w3.org/2000/svg"
 width="300.000000pt" height="300.000000pt" viewBox="0 0 300.000000 300.000000"
 preserveAspectRatio="xMidYMid meet">
<metadata>
Created by potrace 1.11, written by Peter Selinger 2001-2013
</metadata>
<g transform="translate(0.000000,300.000000) scale(0.100000,-0.100000)"
fill="#000000" stroke="none">
<path d="M4 2445 c-2 -5 -2 -446 -1 -980 l2 -970 125 -1 c69 0 130 1 135 3 7
2 11 82 10 230 l-1 226 94 94 c51 52 98 93 104 91 6 -2 25 -40 43 -83 92 -226
228 -541 236 -550 13 -13 262 -14 271 -1 4 6 3 15 -1 21 -4 5 -41 89 -81 185
-40 96 -93 221 -116 276 -24 56 -44 104 -44 108 0 3 -11 29 -24 58 -14 29 -40
90 -59 135 l-35 82 27 29 c250 279 229 259 240 231 8 -22 29 -71 68 -159 8
-19 19 -44 24 -55 5 -11 24 -55 43 -97 19 -43 32 -78 29 -78 -3 0 -1 -6 5 -12
5 -7 28 -56 50 -108 22 -52 92 -214 155 -359 l114 -264 46 -2 c25 -1 49 0 54
4 9 6 63 116 63 127 0 3 25 65 56 137 30 73 71 170 91 217 20 47 43 103 53
125 9 22 39 93 66 158 26 64 51 114 55 110 4 -5 53 -116 109 -248 56 -132 106
-249 111 -260 5 -11 42 -99 83 -195 l75 -174 51 -1 c51 -1 52 0 70 40 31 66
230 526 230 531 0 2 13 32 29 66 16 35 56 128 91 208 63 147 90 211 115 266
34 75 85 196 85 203 0 4 -63 7 -139 7 l-140 1 -37 -91 c-20 -50 -50 -119 -66
-154 -15 -34 -28 -65 -28 -67 0 -2 -11 -28 -24 -57 -14 -29 -39 -87 -56 -128
-18 -41 -40 -93 -50 -115 -9 -22 -30 -70 -46 -107 -26 -62 -44 -85 -44 -57 0
5 -8 29 -19 52 -10 23 -41 96 -68 162 -28 66 -91 219 -142 341 l-93 221 -99
-1 -99 -1 -22 -55 c-13 -30 -23 -57 -23 -60 -1 -3 -9 -23 -19 -45 -10 -22 -31
-73 -48 -114 -17 -41 -34 -82 -39 -90 -5 -9 -45 -102 -88 -208 -99 -240 -97
-236 -107 -198 -4 17 -19 57 -34 90 -33 72 -58 128 -95 215 -15 36 -40 93 -56
128 -16 35 -29 69 -29 76 0 7 -3 16 -7 20 -4 4 -30 59 -58 124 l-51 117 -184
1 -183 0 -238 -238 c-132 -131 -240 -238 -242 -238 -1 0 -2 250 -2 555 0 305
-2 556 -5 556 -30 7 -263 2 -266 -6z"/>
</g>
</svg>
